# xmcd
#
# Track frame offsets:
# 150
# 22993
# 40725
# 48707
# 62453
# 79088
# 94019
# 109642
# 128737
# 156809
# 171905
# 191015
# 210724
# 224600
# 238819
#
# Disc length: 3379 seconds
#
#
# Revision: 0
# Processed by: cddbd v1.5.2PL0 Copyright (c) Steve Scherf et al.
# Submitted via: FreeRIP 2.90 
#
DISCID=cd0d310f
DTITLE=Various Artist - Habaneras
DYEAR=2004
DGENRE=Folk
TTITLE0=Torrevieja
TTITLE1=Enterradme En La Playa
TTITLE2=El Abanico
TTITLE3=A Mi Añoranza
TTITLE4=La Caña Dulce
TTITLE5=La Cubana
TTITLE6=Voy En Busca Del Olvido
TTITLE7=No Lo Esperes
TTITLE8=La Paloma
TTITLE9=Esto Es Amor
TTITLE10=Tú
TTITLE11=Caminemos En El Mar
TTITLE12=Cuba Hermosa
TTITLE13=Renaces Tú
TTITLE14=Golondrina De Amor
EXTD=
EXTT0=
EXTT1=
EXTT2=
EXTT3=
EXTT4=
EXTT5=
EXTT6=
EXTT7=
EXTT8=
EXTT9=
EXTT10=
EXTT11=
EXTT12=
EXTT13=
EXTT14=
PLAYORDER=
